<svg width="427" height="121" viewBox="0 0 427 121" fill="none" xmlns="http://www.w3.org/2000/svg">
<path d="M140.125 49.45C138.725 49.45 137.525 48.975 136.525 48.025C135.525 47.025 135.025 45.825 135.025 44.425C135.025 43.025 135.5 41.85 136.45 40.9C137.45 39.95 138.675 39.475 140.125 39.475C141.475 39.475 142.625 39.95 143.575 40.9C144.525 41.85 145 43.025 145 44.425C145 45.825 144.525 47.025 143.575 48.025C142.625 48.975 141.475 49.45 140.125 49.45ZM132.4 118.9C129.6 118.9 127.375 118.25 125.725 116.95C124.075 115.7 123.25 114 123.25 111.85C123.25 110.5 123.625 109.4 124.375 108.55C125.125 107.7 126.125 107.275 127.375 107.275C128.525 107.275 129.525 107.7 130.375 108.55C131.225 109.4 131.65 110.4 131.65 111.55C130.1 112 129.325 112.975 129.325 114.475C129.325 115.175 129.6 115.8 130.15 116.35C130.75 116.95 131.5 117.25 132.4 117.25C134.2 117.25 135.45 116.375 136.15 114.625C136.9 112.925 137.275 109.925 137.275 105.625V60.4L131.65 59.65V58.15H144.775V104.8C144.775 109.15 143.825 112.575 141.925 115.075C140.075 117.625 136.9 118.9 132.4 118.9ZM170.676 97.75C167.076 97.75 164.226 96.85 162.126 95.05C160.076 93.25 159.051 90.575 159.051 87.025V60.4L153.801 59.65V58.15H166.551V86.875C166.551 89.425 167.076 91.425 168.126 92.875C169.176 94.325 170.801 95.05 173.001 95.05C175.301 95.05 177.501 94.3 179.601 92.8C181.751 91.25 183.651 89.35 185.301 87.1V60.4L180.051 59.65V58.15H192.801V94.75L198.051 95.5V97H185.301V89.8C183.501 92.3 181.326 94.25 178.776 95.65C176.276 97.05 173.576 97.75 170.676 97.75ZM203.065 97V95.5L208.315 94.75V39.25L203.065 38.5V37H215.815V75.475L232.99 61.375L226.465 59.65V58.15H240.565V59.65L235.765 61.375L223.315 71.575L240.865 94.825L244.915 95.5V97H227.365V95.5L231.865 94.75L217.765 76.15L215.815 77.8V94.75L220.315 95.5V97H203.065ZM266.378 97.75C262.678 97.75 259.328 96.925 256.328 95.275C253.328 93.575 250.953 91.2 249.203 88.15C247.453 85.1 246.578 81.575 246.578 77.575C246.578 73.575 247.428 70.075 249.128 67.075C250.878 64.025 253.203 61.675 256.103 60.025C259.053 58.325 262.328 57.475 265.928 57.475C269.078 57.475 271.903 58.175 274.403 59.575C276.903 60.975 278.853 62.925 280.253 65.425C281.653 67.875 282.378 70.7 282.428 73.9H254.828V81.325C254.828 85.725 255.803 89.3 257.753 92.05C259.753 94.75 262.628 96.1 266.378 96.1C269.828 96.1 272.878 95.125 275.528 93.175C278.178 91.225 279.803 88.7 280.403 85.6H282.128C281.428 89.3 279.653 92.25 276.803 94.45C273.953 96.65 270.478 97.75 266.378 97.75ZM274.178 72.025C274.178 67.675 273.503 64.45 272.153 62.35C270.803 60.2 268.703 59.125 265.853 59.125C262.503 59.125 259.903 60.3 258.053 62.65C256.203 65 255.153 68.125 254.903 72.025H274.178ZM313.971 97.75C311.021 97.75 308.471 97 306.321 95.5C304.221 93.95 302.546 91.85 301.296 89.2V97H288.546V95.5L293.796 94.75V39.25L288.546 38.5V37H301.296V66.025C302.546 63.375 304.221 61.3 306.321 59.8C308.471 58.25 311.021 57.475 313.971 57.475C317.521 57.475 320.646 58.3 323.346 59.95C326.046 61.6 328.146 63.95 329.646 67C331.146 70 331.896 73.525 331.896 77.575C331.896 81.625 331.146 85.175 329.646 88.225C328.146 91.225 326.046 93.575 323.346 95.275C320.646 96.925 317.521 97.75 313.971 97.75ZM313.221 95.875C320.171 95.875 323.646 91.025 323.646 81.325V73.825C323.646 64.175 320.171 59.35 313.221 59.35C311.021 59.35 309.021 60 307.221 61.3C305.421 62.55 303.996 64.25 302.946 66.4C301.896 68.5 301.346 70.8 301.296 73.3V81.325C301.296 83.875 301.796 86.275 302.796 88.525C303.846 90.775 305.271 92.575 307.071 93.925C308.921 95.225 310.971 95.875 313.221 95.875ZM359.394 97.75C355.794 97.75 352.519 96.925 349.569 95.275C346.619 93.575 344.269 91.2 342.519 88.15C340.819 85.05 339.969 81.525 339.969 77.575C339.969 73.625 340.819 70.125 342.519 67.075C344.269 64.025 346.619 61.675 349.569 60.025C352.519 58.325 355.794 57.475 359.394 57.475C362.994 57.475 366.269 58.325 369.219 60.025C372.169 61.675 374.494 64.025 376.194 67.075C377.944 70.125 378.819 73.625 378.819 77.575C378.819 81.525 377.944 85.05 376.194 88.15C374.494 91.2 372.169 93.575 369.219 95.275C366.269 96.925 362.994 97.75 359.394 97.75ZM359.394 96.1C363.094 96.1 365.869 94.75 367.719 92.05C369.619 89.35 370.569 85.775 370.569 81.325V73.825C370.569 69.375 369.619 65.825 367.719 63.175C365.869 60.475 363.094 59.125 359.394 59.125C355.694 59.125 352.894 60.475 350.994 63.175C349.144 65.825 348.219 69.375 348.219 73.825V81.325C348.219 85.775 349.144 89.35 350.994 92.05C352.894 94.75 355.694 96.1 359.394 96.1ZM420.089 94.825L424.889 95.5V97H406.589V95.5L411.089 94.75L400.739 80.575L389.714 93.775L395.789 95.5V97H382.364V95.5L387.389 93.625L399.539 78.85L386.039 60.325L381.464 59.65V58.15H399.764V59.65L395.039 60.475L404.414 73.3L414.464 61.45L408.539 59.725V58.225H422.339V59.725L416.864 61.675L405.614 75.025L420.089 94.825Z" fill="#42D6DD"/>
<path fill-rule="evenodd" clip-rule="evenodd" d="M90.3488 110.073V51.6279C90.3488 27.6615 70.4315 7.74419 49.0465 7.74419C27.6615 7.74419 7.74419 27.6615 7.74419 51.6279V110.073H0V47.7889C0 21.3958 21.9589 0 49.0465 0C76.1342 0 98.093 21.3958 98.093 47.7889V110.073H90.3488Z" fill="#0F2B2C"/>
<path fill-rule="evenodd" clip-rule="evenodd" d="M90.3488 110.073V51.6279C90.3488 27.6615 70.4315 7.74419 49.0465 7.74419C27.6615 7.74419 7.74419 27.6615 7.74419 51.6279V110.073H0V47.7889C0 21.3958 21.9589 0 49.0465 0C76.1342 0 98.093 21.3958 98.093 47.7889V110.073H90.3488Z" fill="#42D6DD" fill-opacity="0.371094"/>
<rect x="56.7908" y="56.7906" width="15.4884" height="46.4651" fill="#42D6DD"/>
<rect x="56.7908" y="56.7906" width="15.4884" height="46.4651" fill="#42D6DD" fill-opacity="0.4"/>
<rect x="25.814" y="56.7906" width="15.4884" height="46.4651" fill="#42D6DD"/>
<rect x="25.814" y="56.7906" width="15.4884" height="46.4651" fill="#42D6DD" fill-opacity="0.4"/>
<path d="M49.0465 20.6511C36.2155 20.6511 25.814 30.4748 25.814 42.593H72.2791C72.2791 30.4748 61.8775 20.6511 49.0465 20.6511Z" fill="#42D6DD"/>
<rect y="103.256" width="98.093" height="7.74419" fill="#216A6D"/>
</svg>
